<svg xmlns="http://www.w3.org/2000/svg" width="329.333" height="72.75" viewBox="0 0 329.333 72.75"><path fill-rule="evenodd" clip-rule="evenodd" d="M134.515 24.16c-2.932-2.886-5.845-5.791-8.776-8.677-1.026-1.012-2.088-1.99-3.133-2.983h-23.87c-.584.207-.736.637-.736 1.221.009 15.856.009 31.713 0 47.569 0 .535.154.942.63 1.21h35.647c.55-.202.735-.596.734-1.17-.008-11.989-.005-23.979 0-35.968a1.567 1.567 0 0 0-.496-1.202zm-11.254-8.601l8.653 8.593h-8.653v-8.593zm10.052 45.252h-33.61V14.188h21.859v2.352c-.001 2.69-.004 5.381.001 8.071.001.942.278 1.214 1.215 1.214h10.535v34.986zm-26.392-26.383c-.181.172-.275.566-.22.821.104.471.527.583.987.582 3.099-.005 6.199-.002 9.298-.002v-.002c3.082 0 6.163.005 9.245-.009.266-.001.612-.044.775-.209.187-.19.319-.555.279-.814-.062-.411-.422-.619-.853-.621-.998-.006-1.996 0-2.994 0-5.219 0-10.437-.004-15.655.01-.294 0-.669.061-.862.244zm19.298 19.751c-3.063-.008-6.126-.005-9.19-.005-3.081 0-6.162-.005-9.243.009-.283.001-.657.037-.825.213-.19.197-.301.587-.256.861.069.425.461.568.884.568 6.231 0 12.463.001 18.695-.003.155 0 .353.006.454-.079.222-.186.537-.42.55-.65.014-.261-.213-.583-.425-.792-.129-.128-.424-.121-.644-.122zm-18.493-11.695c4.744.011 9.488.011 14.233.012 1.435 0 2.87.006 4.307-.003.681-.004 1.054-.303 1.064-.816.012-.508-.383-.834-1.04-.834-3.099-.005-6.197-.003-9.295-.003-3.047 0-6.093-.002-9.139.004-.224 0-.491-.016-.66.094-.225.144-.488.388-.521.62-.034.232.137.563.326.736.164.149.477.189.725.19zm18.504 5.019c-6.144.007-12.289.003-18.433.007-.189 0-.43-.021-.557.079-.236.186-.548.446-.564.692-.017.252.241.57.461.769.137.124.428.104.65.105 3.046.005 6.092.004 9.138.004v.005c1.524 0 3.047 0 4.569-.002 1.61 0 3.222.006 4.832-.007.702-.006 1.154-.482.981-1.024-.162-.513-.576-.629-1.077-.628zm-18.581-18.346c3.014.004 6.027.008 9.041-.006.265-.001.625-.046.771-.215.185-.214.345-.652.241-.855-.134-.263-.535-.538-.83-.548-1.522-.055-3.048-.025-4.572-.025v-.004c-1.542 0-3.083-.005-4.625.002-.656.004-1.047.333-1.045.843.002.482.395.807 1.019.808zm199.856 7.295c0-7.62 0-15.239-.006-22.858-.001-2.057-.776-3.796-2.524-4.941-.837-.548-1.891-.779-2.846-1.153h-25.24c-.037.018-.073.047-.112.052-3.222.436-5.313 3.144-5.285 6.413.072 8.684.021 17.369.021 26.054 0 6.779.001 13.559.004 20.339.001 2.056.747 3.798 2.486 4.962.814.546 1.834.797 2.761 1.182h25.489c.032-.024.063-.065.098-.071 3.11-.462 5.197-3.108 5.172-6.318-.064-7.889-.018-15.774-.018-23.661zm-2.176 25.073c-.179 1.536-1.627 2.754-3.214 2.916-1.175.121-2.368.087-3.554.088-6.891.008-13.78.008-20.67.003-2.724-.003-4.382-1.663-4.373-4.35.004-1.145 0-2.29 0-3.494h31.853c0 1.629.144 3.251-.042 4.837zm.146-6.859h-31.91V19.343h31.91v35.323zm.024-37.358h-31.875c0-1.594-.122-3.172.034-4.724.154-1.53 1.577-2.767 3.13-3.023a6.737 6.737 0 0 1 1.118-.091c7.764-.006 15.527-.01 23.293-.002 2.637.003 4.308 1.689 4.3 4.298-.004 1.163 0 2.327 0 3.542zm-15.923 40.343c-1.639-.035-3.01 1.239-3.063 2.849-.053 1.633 1.26 3.001 2.928 3.048 1.614.047 3.029-1.269 3.066-2.85a2.987 2.987 0 0 0-2.931-3.047zm-.057 3.918a.984.984 0 0 1-1.001-.958c-.005-.521.448-.978.98-.986a.984.984 0 0 1 .997.962.981.981 0 0 1-.976.982zm6.846-48.169c-4.554-.007-9.106-.007-13.659.01-.271.001-.658.079-.786.261-.197.28-.336.7-.283 1.026.082.508.549.668 1.048.668h6.799v.005c2.266 0 4.531.005 6.797-.003.713-.003 1.189-.409 1.205-.979.012-.543-.46-.987-1.121-.988z"/><path d="M238 13.4c0-2.5-2-4.4-4.4-4.4h-54.2c-2.4 0-4.4 2-4.4 4.4v34.1c0 2.5 2 4.4 4.4 4.4h54.1c2.5 0 4.4-2 4.4-4.4V13.4h.1zm-1 34.1c0 1.9-1.5 3.5-3.5 3.5h-54c-1.9 0-3.5-1.5-3.5-3.5v-34c0-1.9 1.5-3.5 3.5-3.5h54.1c1.9 0 3.5 1.5 3.5 3.5v34h-.1z"/><path d="M229.1 37H220c-.5 0-1 .5-1 1s.4 1 1 1h9.2c.5 0 1-.5 1-1s-.5-1-1.1-1zM217 37h-9.2c-.5 0-1 .5-1 1s.4 1 1 1h9.2c.5 0 1-.5 1-1s-.4-1-1-1zm-22.2 1c0 .5.4 1 1 1h9.2c.5 0 1-.5 1-1s-.4-1-1-1h-9.2c-.6 0-1 .5-1 1zm11.6 5h-22.7c-.5 0-1 .5-1 1s.4 1 1 1h22.7c.5 0 1-.5 1-1s-.4-1-1-1zm-22.7-4h9.2c.5 0 1-.5 1-1s-.4-1-1-1h-9.2c-.5 0-1 .5-1 1s.5 1 1 1zM196 20c0-2.2-1.8-4-4-4h-6c-2.2 0-4 1.8-4 4v3c0 2.2 1.8 4 4 4h6c2.2 0 4-1.8 4-4v-3zm-1 3c0 1.6-1.3 3-3 3h-6c-1.6 0-3-1.3-3-3v-3c0-1.6 1.3-3 3-3h6c1.6 0 3 1.3 3 3v3zM62.1 49.1c-.8-1.4-2.3-2.2-4.5-2.6-.699-.1-1.399-.2-2.1-.4-4.7-.8-7.8-1.3-9.3-4.6 3.399-2.3 6.7-6.1 6.7-16.1 0-8.9-4.101-13.9-11.7-14.2h-1c-5.601.2-11.3 4.1-11.3 14.2 0 9.8 3.5 13.7 7.1 16.1-1.4 3.3-4.6 3.8-9.2 4.6-.7.1-1.4.2-2.1.4-2.1.4-3.6 1.3-4.4 2.6-1.1 1.9-.5 3.7-.5 3.8l.1.1h42.6l.1-.1c0-.1.6-2-.5-3.8zm-.4 2.9h-41c-.1 0-.2-1.6.5-2.6.7-1.1 1.9-1.7 3.8-2l2.1-.3c5-.8 8.601-1.4 10.2-5.6l.101-.4-.301-.2c-3.399-2.2-7-5.8-7-15.5s5.601-13.2 10.801-13.2c7.3 0 11.199 4.6 11.199 13.2 0 9.8-3.199 13.2-6.6 15.5l-.3.2.1.4c1.601 4.2 5.2 4.8 10.2 5.6.7.1 1.4.2 2.1.4 1.801.3 3.101.8 3.801 1.9.499 1 .399 2.6.299 2.6zM51.9 9.3v.7l2.4-.9v8h.7V8.2l-3.1 1.1zm11 3.3c.399-.2.8-.4 1.1-.8.3-.4.4-.8.4-1.2 0-.7-.2-1.3-.7-1.8-.5-.4-1.101-.7-1.9-.7s-1.4.2-1.9.7c-.5.4-.7 1-.7 1.8 0 .5.1.9.399 1.2.301.4.601.6 1 .8-.5.2-.899.5-1.199.9-.3.4-.4.8-.4 1.3 0 .8.3 1.4.8 1.8s1.2.7 2.101.7c.899 0 1.5-.2 2.1-.7.5-.4.8-1 .8-1.8 0-.5-.2-1-.5-1.4-.501-.4-.901-.6-1.401-.8zm-2.5-.8c-.301-.3-.5-.7-.5-1.3 0-.5.199-1 .5-1.3.3-.3.8-.5 1.3-.5s1 .2 1.3.5c.4.3.5.8.5 1.3s-.2.9-.5 1.3-.8.5-1.3.5-1-.2-1.3-.5zm2.9 4.3c-.399.3-.899.5-1.5.5-.6 0-1.2-.2-1.5-.5-.399-.3-.6-.8-.6-1.4 0-.6.2-1 .6-1.4.4-.3.9-.5 1.5-.5.601 0 1.101.2 1.5.5.4.4.601.8.601 1.4-.001.7-.201 1.1-.601 1.4zm6.3-3.5V9.8h-.7v2.8h-2.6v.7h2.6v2.9h.7v-2.9h2.7v-.7h-2.7z"/></svg>