<svg version="1" xmlns="http://www.w3.org/2000/svg" width="1393.333" height="346.667" viewBox="0 0 1045.000000 260.000000"><path d="M341.3 58c-2.3.9-2.3 1.1-2.3 22.6v21.6l-3.1-2.7c-6.6-5.5-10.8-7-19.9-7-9.9 0-15.5 2.1-21.3 7.9-8 7.9-11.7 19.5-11.7 36.1 0 21.3 5.3 33.5 17.2 40 4.7 2.7 6.2 3 14.3 3 10.4 0 15.1-1.8 22.9-8.6l4.6-4.1v4.5c0 6.3 1.7 7.7 9.1 7.7 10.9 0 9.9 6.4 9.9-61.1V59l-2.6-1c-3.1-1.2-14.1-1.2-17.1 0zm-14 54.6c1.8.9 5.1 3.5 7.5 5.7l4.2 4.1V149l-3.6 3.9c-7.5 8.4-17.5 10.3-23.5 4.5-4.6-4.4-6.4-10.5-6.4-21.9 0-8.7.3-10.7 2.5-15 4.3-8.5 11.9-11.6 19.3-7.9zm422-54.6l-2.3.9V177l2.6 1c3.3 1.3 13.5 1.3 16.8 0l2.6-1V59l-2.6-1c-3.1-1.2-14.1-1.2-17.1 0zm-363.1 2c-5.3 2.2-6.7 14.9-2.2 19.5 2.5 2.4 14.1 3.3 18 1.3 5.2-2.8 6.4-13.6 2.1-18.9-1.6-2-3-2.4-8.7-2.6-3.8-.2-7.9.2-9.2.7zm408 0c-5.3 2.2-6.7 14.9-2.2 19.5 2.5 2.4 14.1 3.3 18 1.3 5.2-2.8 6.4-13.6 2.1-18.9-1.6-2-3-2.4-8.7-2.6-3.8-.2-7.9.2-9.2.7zm-224.7 3.6c-22.3 4.7-35.4 16.5-41.1 37.4-2.6 9.2-2.6 34.8 0 43.9 6.2 22.6 20.2 33.4 45 34.8 29.8 1.7 50-11.5 57.1-37.3.9-3.2 1.8-11.3 2.2-17.9 1.6-34.4-11.3-55.1-37.4-60.1-6.9-1.3-21.1-1.7-25.8-.8zm24.1 21.5c10.6 5.2 14.8 15.2 14.8 35.4.1 10.9-.3 14.2-2.2 20.4-4.4 14-15.2 21.1-30.3 19.8-15-1.3-22.3-9.3-25-27.6-1.5-10.3-.6-22.5 2.2-31.6 2.6-8.5 9.1-15.6 16.5-17.9 7-2.3 17.9-1.6 24 1.5zM43 65.3l-2.5 1.3-.3 54.5c-.2 49.7-.1 54.8 1.4 56 2.1 1.7 15 2.4 18.6 1l2.8-1 .2-27.8.3-27.8L81 149.2c10.8 17 18.4 28.1 19.8 28.7 2.9 1.4 16.2 1.4 19.6.1 4.9-1.8 4.6-2.5-17.1-35.4-8.9-13.7-16.3-25.2-16.3-25.7 0-.4 7.6-11 17-23.3 18-23.8 19.4-26.7 14.4-28.6-3.4-1.3-15.7-1.3-18.6.1-1.3.6-9.3 11.3-18.3 24.5-8.8 13-16.6 24-17.2 24.6-1 .8-1.3-4-1.3-23.6V66l-2.6-1c-3.6-1.4-14.4-1.2-17.4.3zM432.8 74c-1.5.9-1.8 2.6-1.8 10.5V94h-5.5c-6.5 0-7.5 1.2-7.5 9s1 9 7.5 9h5.5v23.8c0 25.4.8 31.1 5.1 36.6 4.6 5.8 14.8 8.6 26.4 7.1 8.1-1 10.5-3.5 10.5-11.2 0-7.7-.8-8.9-5-7.4-1.8.6-4.5 1.1-6.1 1.1-8.2 0-8.9-2.2-8.9-28.5V112h9c7.8 0 9.1-.2 10-1.9 1.4-2.7 1.3-13.4-.2-14.9-.8-.8-4.5-1.2-10-1.2H453v-8.8c0-4.8-.5-9.4-1-10.2-1.1-1.8-16.6-2.6-19.2-1zM167.2 93.4c-1.8.9-5.5 3.9-8.2 6.7l-5 5.2v-5.1c0-6.2-1.3-7.2-9.5-7.2-10.3 0-9.5-3.8-9.5 43.1V177l2.6 1c3.3 1.3 13.5 1.3 16.8 0l2.6-1v-50.7l3.5-4.6c6-7.8 11.4-10 18.4-7.6 5 1.8 6.1.1 6.1-9.5 0-5.1-.5-8.9-1.3-10-1.8-2.4-12-3.2-16.5-1.2zm52.8.1c-10.9 3.1-19.9 11.5-24.1 22.5-2.7 7.1-4 19.6-2.9 28.7 2.3 20.4 11.9 31.2 30.4 34.4 8.7 1.5 21.8.6 30.9-1.9 9.5-2.7 10.7-4 10.7-11.9 0-4.5-.4-6.5-1.4-6.9-.8-.3-4.5.4-8.3 1.6-8.7 2.7-21.3 3.6-27.2 2-7.5-2-13.1-9.5-13.1-17.8V142h25c31 0 29.5.7 28.8-13.9-.9-17-6.8-27.1-19-32.6-7.8-3.5-21.1-4.4-29.8-2zm20.8 17.2c3.7 2.7 5.9 6.9 6.7 12.5l.7 4.8h-16.6c-18.5 0-17.7.4-15.6-7.2 1.3-4.6 5.4-9.6 9.5-11.4 4-1.9 12-1.2 15.3 1.3zM689 92.9c-4.7 1.5-9.5 4.3-14.2 8.3l-4.8 3.9v-5c0-6.1-1.3-7.1-9.5-7.1-10.3 0-9.5-3.8-9.5 43.1V177l2.6 1c3.3 1.3 13.5 1.3 16.8 0l2.6-1v-53.9l3.1-3.6c1.8-2 5.2-4.7 7.6-6.2 6.8-4 13.9-2.3 17.6 4.2.8 1.3 1.4 11.6 1.7 30.3.6 33.1-.1 31.2 11.5 31.2 11.4 0 10.9 1.1 11.3-25.1.6-41.3-2.3-52.5-15.2-59.1-4.3-2.2-17.3-3.4-21.6-1.9zm184 0c-4.7 1.5-9.5 4.3-14.2 8.3l-4.8 3.9v-5c0-6.1-1.3-7.1-9.5-7.1-10.3 0-9.5-3.8-9.5 43.1V177l2.6 1c3.3 1.3 13.5 1.3 16.8 0l2.6-1v-53.9l3.1-3.6c1.8-2 5.2-4.7 7.6-6.2 6.8-4 13.9-2.3 17.6 4.2.8 1.3 1.4 11.6 1.7 30.3.6 33.1-.1 31.2 11.5 31.2 11.4 0 10.9 1.1 11.3-25.1.6-41.3-2.3-52.5-15.2-59.1-4.3-2.2-17.3-3.4-21.6-1.9zm81 .6c-10.9 3.1-19.9 11.5-24.1 22.5-2.7 7.1-4 19.6-2.9 28.7 2.3 20.4 11.9 31.2 30.4 34.4 8.7 1.5 21.8.6 30.9-1.9 9.5-2.7 10.7-4 10.7-11.9 0-4.5-.4-6.5-1.4-6.9-.8-.3-4.5.4-8.3 1.6-8.7 2.7-21.3 3.6-27.2 2-7.5-2-13.1-9.5-13.1-17.8V142h25c31 0 29.5.7 28.8-13.9-.9-17-6.8-27.1-19-32.6-7.8-3.5-21.1-4.4-29.8-2zm20.8 17.2c3.7 2.7 5.9 6.9 6.7 12.5l.7 4.8h-16.6c-18.5 0-17.7.4-15.6-7.2 1.3-4.6 5.4-9.6 9.5-11.4 4-1.9 12-1.2 15.3 1.3zM385.3 94l-2.3.9V177l2.6 1c3.3 1.3 13.5 1.3 16.8 0l2.6-1V95l-2.6-1c-3.1-1.2-14.1-1.2-17.1 0zm408 0l-2.3.9V177l2.6 1c3.3 1.3 13.5 1.3 16.8 0l2.6-1V95l-2.6-1c-3.1-1.2-14.1-1.2-17.1 0z"/></svg>